<?xml version="1.0" encoding="utf-8"?>
<!-- Generator: Adobe Illustrator 18.0.0, SVG Export Plug-In . SVG Version: 6.00 Build 0)  -->
<!DOCTYPE svg PUBLIC "-//W3C//DTD SVG 1.1//EN" "http://www.w3.org/Graphics/SVG/1.1/DTD/svg11.dtd">
<svg version="1.1" id="Layer_1" xmlns="http://www.w3.org/2000/svg" xmlns:xlink="http://www.w3.org/1999/xlink" x="0px" y="0px"
	 viewBox="0 0 64 64" enable-background="new 0 0 64 64" xml:space="preserve">
<g>
	<g>
		<g>
			<path fill="#384489" d="M32,0c17.7,0,32,14.3,32,32S49.7,64,32,64S0,49.7,0,32S14.3,0,32,0z"/>
		</g>
	</g>
	<g>
		<g>
			<rect x="10" y="18" fill="#CFF28B" width="44" height="28"/>
		</g>
	</g>
	<g>
		<g>
			<g>
				<path fill="#4EB550" d="M52,44H12V20h40V44z"/>
			</g>
		</g>
	</g>
	<g>
		<g>
			<rect x="14" y="22.4" fill="#CFF28B" width="36" height="19.2"/>
		</g>
	</g>
	<g>
		<g>
			<path fill="#4EB550" d="M20,20c0,4.4-3.6,8-8,8v-8H20z"/>
		</g>
	</g>
	<g>
		<g>
			<path fill="#4EB550" d="M52,28c-4.4,0-8-3.6-8-8h8V28z"/>
		</g>
	</g>
	<g>
		<g>
			<path fill="#4EB550" d="M20,44c0-4.4-3.6-8-8-8v8H20z"/>
		</g>
	</g>
	<g>
		<g>
			<path fill="#4EB550" d="M52,36c-4.4,0-8,3.6-8,8h8V36z"/>
		</g>
	</g>
	<g>
		<g>
			<circle fill="#4EB550" cx="32" cy="32" r="8"/>
		</g>
	</g>
	<g>
		<g>
			<path fill="none" stroke="#000000" stroke-width="0.5" stroke-linecap="round" stroke-linejoin="round" d="M33.8,30.1"/>
		</g>
	</g>
	<g>
		<g>
			<path fill="#CFF28B" d="M35,33.5c0-1.2-1-2.1-2.9-2.5C31.7,31,31,30.8,31,30.5c0-0.2,0.4-0.5,1-0.5c0.6,0,1,0.3,1,0.5l1.9-0.6
				c-0.2-0.8-1-1.5-2-1.8V27h-2v1.1c-1.2,0.3-2,1.2-2,2.4c0,1.3,0.9,2.1,2.7,2.5c1.1,0.2,1.3,0.5,1.3,0.5c0,0.2-0.4,0.5-1,0.5
				c-0.6,0-1-0.3-1-0.5L29,34.1c0.2,0.8,1,1.5,2,1.8V37h2v-1.1C34.2,35.5,35,34.6,35,33.5z"/>
		</g>
	</g>
	<g>
		<g>
			<circle fill="#4EB550" cx="19" cy="32" r="1.5"/>
		</g>
	</g>
	<g>
		<g>
			<circle fill="#4EB550" cx="44" cy="32" r="1.5"/>
		</g>
	</g>
</g>
</svg>
